<?xml version="1.0" encoding="UTF-8" standalone="no"?>
<!-- Created with Inkscape (http://www.inkscape.org/) -->

<svg
   xmlns:dc="http://purl.org/dc/elements/1.1/"
   xmlns:cc="http://creativecommons.org/ns#"
   xmlns:rdf="http://www.w3.org/1999/02/22-rdf-syntax-ns#"
   xmlns:svg="http://www.w3.org/2000/svg"
   xmlns="http://www.w3.org/2000/svg"
   xmlns:xlink="http://www.w3.org/1999/xlink"
   xmlns:sodipodi="http://sodipodi.sourceforge.net/DTD/sodipodi-0.dtd"
   xmlns:inkscape="http://www.inkscape.org/namespaces/inkscape"
   id="svg4723"
   version="1.1"
   inkscape:version="0.91 r13725"
   xml:space="preserve"
   width="279.39999mm"
   height="215.89999mm"
   viewBox="0 0 990 765"
   sodipodi:docname="beanHopperTrace.svg"><sodipodi:namedview
     pagecolor="#ffffff"
     bordercolor="#666666"
     borderopacity="1"
     objecttolerance="10"
     gridtolerance="10"
     guidetolerance="10"
     inkscape:pageopacity="0"
     inkscape:pageshadow="2"
     inkscape:window-width="2194"
     inkscape:window-height="1151"
     id="namedview4725"
     showgrid="false"
     inkscape:zoom="1.745121"
     inkscape:cx="181.39858"
     inkscape:cy="539.10579"
     inkscape:window-x="-8"
     inkscape:window-y="-8"
     inkscape:window-maximized="1"
     inkscape:current-layer="layer8"
     inkscape:document-units="mm"
     units="mm" /><metadata
     id="metadata4729"><rdf:RDF><cc:Work
         rdf:about=""><dc:format>image/svg+xml</dc:format><dc:type
           rdf:resource="http://purl.org/dc/dcmitype/StillImage" /><dc:title /></cc:Work></rdf:RDF></metadata><defs
     id="defs4727" /><g
     id="g4731"
     inkscape:groupmode="layer"
     inkscape:label="600dpiScan"
     transform="matrix(1.25,0,0,-1.25,0,765)"
     style="display:none;opacity:0.58999999"><g
       id="g4733"
       transform="matrix(791.99517,2.7645959,-2.1362787,611.99627,-151.69701,-145.885)"><image
         sodipodi:absref="C:\Utils\Jason\3d\ForShridhar\600dpiScan.png"
         xlink:href="600dpiScan.png"
         width="1"
         height="1"
         preserveAspectRatio="none"
         transform="matrix(1,0,0,-1,0,1)"
         id="image4735" /></g></g><g
     inkscape:groupmode="layer"
     id="layer3"
     inkscape:label="Orig"
     style="display:none"><path
       style="fill:none;fill-rule:evenodd;stroke:#000000;stroke-width:0.17716534;stroke-linecap:butt;stroke-linejoin:miter;stroke-miterlimit:4;stroke-dasharray:none;stroke-opacity:1"
       d="m 96.946351,344.32895 c -17.32039,0.25708 -27.52135,1.84123 -40.31656,6.48417 -6.57703,2.38658 -17.91368,8.26704 -25.66754,14.488 -8.90112,7.14141 -13.08922,12.35865 -17.90762,19.85703 -4.2866598,6.67089 -7.3907198,14.17357 -9.4490198,21.83122 -1.65171,6.14499 -1.82735,12.60865 -2.22246,18.95946 -1.40624002,22.60374 -0.34177,45.2936 -0.51475002,67.9404 -0.20096,26.30899 -1.1763,52.62332 -0.60775,78.92694 0.22759,10.52945 0.80056002,21.04715 1.60824002,31.55477 1.61472,19.48716 5.5463,36.1426 11.1625198,53.45837 3.58617,11.05681 8.40386,21.78228 14.26449,31.82054 6.13553,10.50912 13.12253,20.71798 21.66897,29.38081 9.3336,9.46071 19.86616,18.17496 31.76386,24.0966 17.64071,8.78001 35.780779,13.17813 56.899269,16.03191 15.83129,0.99737 31.67703,1.71812 47.52445,2.38391 23.25866,0.97714 46.52338,1.87907 69.79749,2.36395 46.51953,0.96916 93.04936,1.20729 139.58462,1.08949 0,0 46.46445,-0.2531 69.68801,-0.84249 17.05852,-0.43292 34.121,-0.94678 51.15381,-1.97843 11.02661,-0.66787 22.13332,-0.89953 33.02818,-2.72547 7.9556,-1.33332 15.677,-3.67586 23.4487,-5.98175 10.49308,-3.14775 20.14942,-8.12302 29.29744,-13.87381 6.82627,-4.29126 13.19866,-9.41933 18.80642,-15.21294 10.63068,-10.98302 19.57939,-22.88321 27.66202,-36.5726 8.97667,-16.86194 15.35447,-34.99218 19.20167,-51.93971 2.22206,-9.78854 3.43225,-19.77411 4.66976,-29.74849 0.78545,-8.80242 1.15305,-17.62734 1.55924,-26.45255 l 0.50966,-42.74797 c 0.33371,-36.23997 0.86698,-72.47755 0.85482,-108.7192 -0.18526,-11.7485 -2.93792,-24.60758 -7.34742,-33.80768 -4.1819,-8.53752 -9.80705,-16.70955 -17.06087,-22.85443 -12.65169,-10.71756 -31.28205,-20.51323 -44.21102,-22.79842 -5.11682,-0.90439 -12.94983,-2.1389 -19.84309,-2.29901 -5.82367,-0.13528 -12.2171,-0.2811 -18.5227,-0.37166 l -37.16451,-1.40856 c 0,0 -38.48981,-0.79598 -86.04326,-1.10091 -48.31346,-0.30981 -105.96958,-0.12909 -140.45568,-0.1892 -68.42971,-0.11928 -206.819429,0.95771 -206.819429,0.95771 z"
       id="path5278"
       inkscape:connector-curvature="0"
       sodipodi:nodetypes="cssaaaaacaaaacaacaaacaacscccccassccsscc" /></g><g
     inkscape:groupmode="layer"
     id="layer6"
     inkscape:label="Symetrical"
     style="display:none"><path
       id="use5882"
       style="display:inline;fill:none;fill-opacity:1;fill-rule:evenodd;stroke:#000000;stroke-width:0.17716534;stroke-linecap:butt;stroke-linejoin:miter;stroke-miterlimit:4;stroke-dasharray:none;stroke-opacity:1"
       d="m 420.42288,765.05301 c 23.27228,-0.56612 46.53371,-1.54925 69.78881,-2.60758 15.845,-0.7211 31.68813,-1.49716 47.51584,-2.54978 21.1084,-2.92748 39.23301,-7.3889 56.84295,-16.23043 11.87696,-5.96313 22.37904,-14.7141 31.67956,-24.20733 8.51615,-8.69261 15.46747,-18.9258 21.56628,-29.45627 5.82555,-10.05866 10.60577,-20.80088 14.15333,-31.87014 5.55574,-17.33527 9.42916,-34.00433 10.97584,-53.49701 0.771,-10.51037 1.30725,-21.03001 1.49809,-31.56019 0.47673,-26.30544 -0.59046,-52.61621 -0.88325,-78.92434 -0.25204,-22.64605 0.73323,-45.33949 -0.75191,-67.93818 -0.41727,-6.34939 -0.61548,-12.8124 -2.28863,-18.95158 -2.08501,-7.65042 -5.21524,-15.14222 -9.52516,-21.79811 -4.84455,-7.48151 -9.05083,-12.6841 -17.97683,-19.7944 -7.77553,-6.19385 -19.13263,-12.0347 -25.71795,-14.39831 -12.81134,-4.59825 -23.01777,-6.14678 -40.33894,-6.3434 l 4e-5,0 -206.82152,-0.23675 -33.00611,0 -33.00611,0 -206.821519,0.23675 4e-5,0 c -17.32117,0.19662 -27.5276,1.74515 -40.33894,6.3434 -6.58532,2.36361 -17.94242,8.20446 -25.71795,14.39831 -8.926,7.1103 -13.13228,12.31289 -17.97683,19.7944 -4.3099198,6.65589 -7.4401498,14.14769 -9.5251598,21.79811 -1.67315,6.13918 -1.87136,12.60219 -2.28863,18.95158 -1.48514002,22.59869 -0.49987002,45.29213 -0.75191002,67.93818 -0.29279,26.30813 -1.35998,52.6189 -0.88325,78.92434 0.19084,10.53018 0.72709,21.04982 1.49809002,31.56019 1.54668,19.49268 5.4201,36.16174 10.9758398,53.49701 3.54756,11.06926 8.32778,21.81148 14.15333,31.87014 6.09881,10.53047 13.05013,20.76366 21.56628,29.45627 9.30052,9.49323 19.8026,18.2442 31.67956,24.20733 17.60994,8.84153 35.734549,13.30295 56.842949,16.23043 15.82771,1.05262 31.67084,1.82868 47.51584,2.54978 23.2551,1.05833 46.51653,2.04146 69.78881,2.60758 29.36778,0.26856 55.49153,1.51391 83.28956,1.66532 27.79803,-0.15141 53.92178,-1.39676 83.28956,-1.66532 z"
       inkscape:connector-curvature="0"
       sodipodi:nodetypes="cscsssscssssssscccccccssssssscsssscsccc" /></g><g
     style="display:none"
     inkscape:label="First symetrical"
     id="g6458"
     inkscape:groupmode="layer"><path
       id="use6466"
       style="fill:none;fill-rule:evenodd;stroke:#000000;stroke-width:0.17716534;stroke-linecap:butt;stroke-linejoin:miter;stroke-miterlimit:4;stroke-dasharray:none;stroke-opacity:1"
       d="m 337.33738,343.45257 240.30211,0.87619 -4e-5,5e-5 c 17.32039,0.25708 27.52135,1.84123 40.31656,6.48417 6.57703,2.38658 17.91368,8.26704 25.66754,14.488 8.90112,7.14141 13.08922,12.35865 17.90762,19.85703 4.28666,6.67089 7.39072,14.17357 9.44902,21.83122 1.65171,6.14499 1.82735,12.60865 2.22246,18.95946 1.40624,22.60374 0.34177,45.2936 0.51475,67.9404 0.20096,26.30899 1.1763,52.62332 0.60775,78.92694 -0.22759,10.52945 -0.80056,21.04715 -1.60824,31.55477 -1.61472,19.48716 -5.5463,36.1426 -11.16252,53.45837 -3.58617,11.05681 -8.40386,21.78228 -14.26449,31.82054 -6.13553,10.50912 -13.12253,20.71798 -21.66897,29.38081 -9.3336,9.46071 -19.86616,18.17496 -31.76386,24.0966 -17.64071,8.78001 -35.78078,13.17813 -56.89927,16.03191 -15.83129,0.99737 -31.67703,1.71812 -47.52445,2.38391 -23.25866,0.97714 -46.52338,1.87907 -69.79749,2.36395 -11.62988,0.24229 -23.2604,0.43888 -34.8915,0.59565 -15.77062,0.19353 -29.40688,0.34465 -43.60118,0.39501 l -3.8058,0.0136 m -0.089,-421.45858 -240.302109,0.87619 4e-5,5e-5 c -17.32039,0.25708 -27.52135,1.84123 -40.31656,6.48417 -6.57703,2.38658 -17.91368,8.26704 -25.66754,14.488 -8.90112,7.14141 -13.08922,12.35865 -17.90762,19.85703 -4.2866598,6.67089 -7.3907198,14.17357 -9.4490198,21.83122 -1.65171,6.14499 -1.82735,12.60865 -2.22246,18.95946 -1.40624002,22.60374 -0.34177,45.2936 -0.51475002,67.9404 -0.20096,26.30899 -1.1763,52.62332 -0.60775,78.92694 0.22759,10.52945 0.80056002,21.04715 1.60824002,31.55477 1.61472,19.48716 5.5463,36.1426 11.1625198,53.45837 3.58617,11.05681 8.40386,21.78228 14.26449,31.82054 6.13553,10.50912 13.12253,20.71798 21.66897,29.38081 9.3336,9.46071 19.86616,18.17496 31.76386,24.0966 17.64071,8.78001 35.780779,13.17813 56.899269,16.03191 15.83129,0.99737 31.67703,1.71812 47.52445,2.38391 23.25866,0.97714 46.52338,1.87907 69.79749,2.36395 11.62988,0.24229 23.2604,0.43888 34.8915,0.59565 15.77062,0.19353 29.40688,0.34465 43.60118,0.39501 l 3.8058,0.0136"
       inkscape:connector-curvature="0" /></g><g
     style="display:inline"
     inkscape:label="NoSplineExport"
     id="g7818"
     inkscape:groupmode="layer"><path
       sodipodi:nodetypes="ccccccccccccccccccccccccccccccccccccccccccccccccccccccccccccccccccccccccccccccccccccccccccccccccccccccccccccccccccccccccccccccccccccccccccccccccccccccccccccccc"
       id="path7820"
       style="fill:none;fill-rule:evenodd;stroke:#000000;stroke-width:0.17716534;stroke-linecap:butt;stroke-linejoin:miter;stroke-miterlimit:4;stroke-dasharray:none;stroke-opacity:1"
       d="m 341.14475,764.8978 43.60124,-0.39501 34.89155,-0.59565 34.90459,-0.99738 34.893,-1.36657 23.76831,-1.06761 23.75621,-1.3163 7.78467,-1.1481 7.5345,-1.32614 7.31337,-1.53742 7.1213,-1.78196 6.95828,-2.05975 6.82431,-2.3708 6.71939,-2.7151 6.64353,-3.09264 4.39798,-2.34752 4.27194,-2.58536 4.14785,-2.7992 4.02572,-2.98907 3.90552,-3.15497 3.78728,-3.29688 3.67098,-3.41482 3.55663,-3.50878 3.13321,-3.3186 2.9953,-3.44894 2.8657,-3.56468 2.74439,-3.66583 5.15804,-7.57669 4.77236,-7.80607 4.19698,-7.65199 3.7882,-7.87633 3.36174,-8.0673 2.91759,-8.22492 2.02589,-6.46928 1.86054,-6.4483 1.68778,-6.46824 1.50763,-6.5291 1.32005,-6.63088 1.12508,-6.77359 0.92268,-6.95721 0.71289,-7.18177 1.02166,-15.7692 0.58658,-15.78557 0.17316,-19.72947 -0.18847,-19.73199 -0.59244,-39.46548 0.0444,-16.99116 0.16075,-16.99519 -0.0705,-16.98712 -0.23059,-8.48675 -0.41877,-8.48018 -0.64001,-9.55691 -0.59394,-4.7408 -0.98851,-4.66175 -1.74195,-5.70361 -2.14693,-5.58204 -2.56476,-5.39702 -2.9954,-5.14855 -3.57911,-5.26178 -3.84369,-4.8006 -2.1776,-2.35056 -2.43159,-2.38311 -5.87565,-5.06098 -3.05935,-2.31074 -3.29748,-2.24187 -3.43783,-2.13603 -3.48044,-1.99325 -6.69762,-3.41035 -5.69486,-2.39576 -4.69557,-1.60111 -4.5662,-1.33463 -4.55065,-1.08846 -4.64894,-0.86258 -4.86106,-0.657 -5.187,-0.4717 -5.62679,-0.3067 -6.1804,-0.16199 4e-5,-5e-5 -240.34697,-0.87619 -240.346969,0.87619 4e-5,5e-5 -6.18041,0.16199 -5.62678,0.3067 -5.18701,0.4717 -4.86106,0.657 -4.64893,0.86258 -4.55065,1.08846 -4.5662,1.33463 -4.69558,1.60111 -5.69486,2.39576 -6.69762,3.41035 -3.48043,1.99325 -3.43784,2.13603 -3.29747,2.24187 -3.05936,2.31074 -5.87564,5.06098 -2.4316,2.38311 -2.1776,2.35056 -3.84369,4.8006 -3.57911,5.26178 -2.9954,5.14855 -2.5647498,5.39702 -2.14694,5.58204 -1.74194,5.70361 -0.98852,4.66175 -0.59394,4.7408 -0.64001,9.55691 -0.41877002,8.48018 -0.23059,8.48675 -0.0705,16.98712 0.16076,16.99519 0.0443,16.99116 -0.59244,39.46548 -0.18846,19.73199 0.17315,19.72947 0.58659,15.78557 1.02165002,15.7692 0.71289,7.18177 0.92269,6.95721 1.12507,6.77359 1.32006,6.63088 1.50762,6.5291 1.68779,6.46824 1.8605398,6.4483 2.02588,6.46928 2.91759,8.22492 3.36174,8.0673 3.7882,7.87633 4.19698,7.65199 4.77237,7.80607 5.15804,7.57669 2.74439,3.66583 2.86569,3.56468 2.99531,3.44894 3.1332,3.3186 3.55663,3.50878 3.67098,3.41482 3.78728,3.29688 3.90552,3.15497 4.02572,2.98907 4.14786,2.7992 4.27194,2.58536 4.39798,2.34752 6.64352,3.09264 6.71939,2.7151 6.824309,2.3708 6.95828,2.05975 7.1213,1.78196 7.31337,1.53742 7.5345,1.32614 7.78468,1.1481 23.75621,1.3163 23.7683,1.06761 34.893,1.36657 34.90459,0.99738 34.89155,0.59565 43.60124,0.39501 3.85033,0.0136 z"
       inkscape:connector-curvature="0" /></g><g
     inkscape:groupmode="layer"
     id="layer8"
     inkscape:label="Copyright Notice"><flowRoot
       xml:space="preserve"
       id="flowRoot9006"
       style="font-style:normal;font-weight:normal;font-size:13.75px;line-height:125%;font-family:sans-serif;letter-spacing:0px;word-spacing:0px;fill:#000000;fill-opacity:1;stroke:none;stroke-width:1px;stroke-linecap:butt;stroke-linejoin:miter;stroke-opacity:1"><flowRegion
         id="flowRegion9008"><rect
           id="rect9010"
           width="588.49786"
           height="273.90649"
           x="24.067099"
           y="18.346882"
           style="font-size:13.75px" /></flowRegion><flowPara
         id="flowPara9012"
         style="font-size:12.5px">/* Copyright (C) 2018 Jason T Tech &lt;jasonttech@gmail.com&gt;</flowPara><flowPara
         id="flowPara9014"
         style="font-size:12.5px"> *</flowPara><flowPara
         id="flowPara9016"
         style="font-size:12.5px"> * This work is free: you can redistribute it and/or modify</flowPara><flowPara
         id="flowPara9018"
         style="font-size:12.5px"> * it under the terms of the GNU General Public License as published by</flowPara><flowPara
         id="flowPara9020"
         style="font-size:12.5px"> * the Free Software Foundation, either version 3 of the License, or</flowPara><flowPara
         id="flowPara9022"
         style="font-size:12.5px"> * (at your option) any later version.</flowPara><flowPara
         id="flowPara9024"
         style="font-size:12.5px"> *</flowPara><flowPara
         id="flowPara9026"
         style="font-size:12.5px"> * This work is distributed in the hope that it will be useful,</flowPara><flowPara
         id="flowPara9028"
         style="font-size:12.5px"> * but WITHOUT ANY WARRANTY; without even the implied warranty of</flowPara><flowPara
         id="flowPara9030"
         style="font-size:12.5px"> * MERCHANTABILITY or FITNESS FOR A PARTICULAR PURPOSE.  See the</flowPara><flowPara
         id="flowPara9032"
         style="font-size:12.5px"> * GNU General Public License for more details.</flowPara><flowPara
         id="flowPara9034"
         style="font-size:12.5px"> *</flowPara><flowPara
         id="flowPara9036"
         style="font-size:12.5px"> * You should have received a copy of the GNU General Public License</flowPara><flowPara
         id="flowPara9038"
         style="font-size:12.5px"> * along with this.  If not, see &lt;https://www.gnu.org/licenses/&gt;.</flowPara><flowPara
         id="flowPara9040"
         style="font-size:12.5px">*/</flowPara></flowRoot></g></svg>